<svg version="1.1" id="Layer_1" xmlns="http://www.w3.org/2000/svg" xmlns:xlink="http://www.w3.org/1999/xlink" x="0px" y="0px"
	 width="100%" viewBox="0 0 633 171" enable-background="new 0 0 633 171" xml:space="preserve">
<path fill="#121212" opacity="1.000000" stroke="none" 
	d="
M449.000000,172.000000 
	C299.379700,172.000000 150.259415,172.000000 1.069563,172.000000 
	C1.069563,115.064171 1.069563,58.128231 1.069563,1.096145 
	C211.999985,1.096145 422.999969,1.096145 633.971191,1.096145 
	C633.971191,58.073845 633.971191,115.036934 633.971191,172.000000 
	C572.461609,172.000000 510.980804,172.000000 449.000000,172.000000 
M86.699661,94.766312 
	C90.092278,97.337227 93.484886,99.908134 96.950706,102.534531 
	C80.091255,112.057373 79.661484,112.098701 62.180477,105.965866 
	C61.709927,105.800781 61.252415,105.511238 60.773041,105.471855 
	C54.551716,104.960693 48.284470,103.811668 42.117317,104.206406 
	C36.933182,104.538231 35.087547,109.483879 38.705559,113.266800 
	C41.488441,116.176529 45.658131,117.904884 49.442963,119.658104 
	C51.790161,120.745361 54.765232,120.473816 57.117233,121.554726 
	C62.551884,124.052307 67.926369,124.446869 73.571739,122.569130 
	C77.840294,121.149345 81.656342,122.060692 85.260605,124.793159 
	C89.751495,128.197800 94.316521,131.537827 99.076500,134.546707 
	C106.594795,139.299149 114.667511,142.701782 123.748978,142.949921 
	C127.044914,143.039978 129.310745,141.624771 129.295105,138.046936 
	C129.277939,134.119995 127.358932,130.989365 123.446304,130.527481 
	C121.645912,130.314926 119.574371,132.399338 117.625778,133.442200 
	C117.807159,133.928726 117.988541,134.415253 118.169922,134.901764 
	C105.476646,133.334991 95.995331,126.020462 86.819466,117.651894 
	C96.167145,112.852501 104.539085,105.999290 115.784615,110.858864 
	C119.264885,112.362801 123.072365,113.124886 126.751144,114.150917 
	C134.240067,116.239624 141.771027,117.141487 149.325287,114.490616 
	C154.800491,112.569298 158.171616,107.984253 157.951920,102.921555 
	C157.740814,98.056847 154.295792,93.574791 148.831055,92.369644 
	C144.839874,91.489471 140.486237,90.914482 136.514145,91.559074 
	C127.685539,92.991814 119.017632,95.389160 110.233093,97.136261 
	C107.902306,97.599808 104.863510,98.015053 103.044037,96.939583 
	C94.444016,91.856224 86.154144,86.248154 76.720108,80.160103 
	C96.450249,73.854828 114.874672,67.913925 133.338379,62.097710 
	C139.065933,60.293488 144.591446,59.693142 147.462128,66.824669 
	C147.684036,67.375961 148.353180,67.972275 148.922729,68.114777 
	C150.407593,68.486259 151.952652,68.617088 153.473694,68.843910 
	C153.637527,67.271545 154.284027,65.540421 153.833328,64.170181 
	C153.355179,62.716400 151.978622,61.439743 150.746155,60.372410 
	C144.615128,55.062920 137.369797,54.436901 130.083878,56.706196 
	C111.964302,62.349770 94.013794,68.535950 75.896469,74.187065 
	C73.165901,75.038765 69.766312,74.724159 66.922165,73.992691 
	C63.116478,73.013916 59.661869,70.687630 55.861137,69.668739 
	C44.925991,66.737244 33.830994,63.781891 22.534014,67.313683 
	C19.740873,68.186905 15.946751,70.851463 15.572100,73.170631 
	C15.129752,75.908852 17.578062,79.380783 19.404854,82.112167 
	C20.395445,83.593269 22.636681,84.328461 24.421507,85.172234 
	C32.355946,88.923271 40.489895,86.804581 48.471348,85.568344 
	C73.806725,81.644188 67.354507,80.609230 86.699661,94.766312 
M245.697098,104.379677 
	C245.856995,96.030540 242.220062,89.984894 234.556625,86.625122 
	C231.844589,85.436111 228.902740,84.738914 226.026245,83.964058 
	C219.957520,82.329292 213.797638,80.993629 207.824173,79.072037 
	C206.326599,78.590279 204.343735,76.260384 204.460770,74.947121 
	C204.614594,73.220772 206.402023,71.394737 207.915298,70.120079 
	C208.942642,69.254745 210.686417,69.152390 212.142853,68.898506 
	C220.529755,67.436470 227.684738,70.725822 234.707230,75.179947 
	C237.384216,71.535782 239.924576,68.077606 242.458511,64.628174 
	C231.192780,54.936768 213.593628,52.456036 200.331635,58.608719 
	C187.427338,64.595451 185.493042,81.411354 197.417770,89.210220 
	C202.757767,92.702606 209.603882,93.953384 215.843246,95.985794 
	C219.452454,97.161453 223.384445,97.471382 226.837067,98.950699 
	C228.604706,99.708054 230.671783,102.151382 230.720016,103.885124 
	C230.771133,105.722488 228.889343,107.962608 227.282898,109.383827 
	C226.054779,110.470345 223.974533,110.802986 222.214798,111.044479 
	C212.561859,112.369118 204.463501,108.331322 196.414917,103.131058 
	C193.879089,106.784752 191.393555,110.365974 188.931992,113.912674 
	C199.027756,121.660255 208.545502,124.798317 220.386337,124.522324 
	C235.618500,124.167290 243.820999,117.879349 245.697098,104.379677 
M384.481323,99.686066 
	C384.191467,98.909843 383.909088,98.130722 383.610535,97.357849 
	C380.485168,89.267380 382.006256,81.991982 387.709839,75.630356 
	C393.115479,69.601082 400.101166,66.716019 407.815521,69.224327 
	C413.074768,70.934357 417.654449,74.734535 423.428253,78.122559 
	C426.388336,76.954697 430.643311,75.275970 434.944794,73.578880 
	C426.632904,59.097515 409.419830,52.051037 393.672516,56.445728 
	C377.897644,60.848106 366.905396,75.143288 367.438538,90.562546 
	C368.005219,106.951431 379.297302,120.111687 395.932800,123.770889 
	C411.239868,127.137886 427.863434,119.599678 434.806732,105.920776 
	C430.493805,104.236961 426.209381,102.564278 422.030853,100.932930 
	C407.759338,115.025467 394.972137,114.749023 384.481323,99.686066 
M473.512451,72.693840 
	C461.264587,70.027672 451.052856,74.243668 445.347076,84.322128 
	C439.826904,94.072670 441.434174,109.384277 449.013641,116.949707 
	C453.357147,121.285141 458.578644,124.612587 464.922852,124.046295 
	C470.770660,123.524323 476.520813,121.908089 482.389252,120.759109 
	C483.112457,123.737877 485.716431,124.308060 495.730713,122.640045 
	C495.730713,106.102371 495.730713,89.572266 495.730713,73.093048 
	C491.254303,73.093048 487.128204,73.093048 482.862732,73.093048 
	C482.579346,74.408737 482.324707,75.590790 482.104156,76.614670 
	C479.328094,75.325958 476.807800,74.155983 473.512451,72.693840 
M294.486938,73.059448 
	C288.432983,71.740105 284.691803,74.725952 281.399109,79.449043 
	C278.068207,84.226921 274.114594,88.570679 269.480225,94.279152 
	C269.480225,79.887985 269.480225,67.136406 269.480225,54.321754 
	C264.687469,54.321754 260.305267,54.321754 256.086273,54.321754 
	C256.086273,77.389397 256.086273,100.123497 256.086273,122.935516 
	C260.603882,122.935516 264.848083,122.935516 269.401184,122.935516 
	C269.837433,117.165611 268.000854,110.749878 274.750641,107.195282 
	C278.263489,111.569496 281.846863,116.134888 285.566071,120.586800 
	C286.446960,121.641205 287.744385,122.976997 288.917969,123.047035 
	C293.630859,123.328308 298.370361,123.163361 304.096436,123.163361 
	C296.703674,113.729836 290.001648,105.177750 283.276886,96.596649 
	C289.929016,88.813087 296.415680,81.223145 303.392670,73.059448 
	C300.041351,73.059448 297.725922,73.059448 294.486938,73.059448 
M313.503937,90.018631 
	C317.755676,99.551857 322.098297,109.046593 326.168549,118.656693 
	C326.836945,120.234871 326.830902,122.510841 326.238342,124.137016 
	C324.090271,130.031845 321.559784,135.787308 319.053101,141.888626 
	C324.190063,141.888626 328.956696,141.888626 334.091492,141.888626 
	C343.346313,119.116859 352.646271,96.234055 362.042114,73.115273 
	C356.351196,73.115273 351.367584,73.115273 346.271698,73.115273 
	C342.455444,83.446007 338.664612,93.707909 334.502594,104.974686 
	C330.453888,94.771820 326.945801,85.660164 323.161774,76.664581 
	C322.537384,75.180305 320.800690,73.311623 319.410919,73.160812 
	C315.174255,72.701057 310.855865,72.994026 306.054626,72.994026 
	C308.556885,78.770996 310.848480,84.061577 313.503937,90.018631 
M533.485107,84.703781 
	C536.508423,85.884102 539.531677,87.064423 542.616943,88.268929 
	C544.979797,85.162140 547.144897,82.315437 549.466492,79.262955 
	C538.385376,70.991486 526.873474,69.841995 514.912903,75.318703 
	C512.377625,76.479607 510.030121,79.460594 508.957031,82.146683 
	C505.419006,91.002785 509.672577,98.960136 519.239685,101.803154 
	C523.828918,103.166939 528.670715,103.667160 533.295471,104.933311 
	C534.763306,105.335167 535.899536,106.948219 537.187500,108.006989 
	C535.897766,109.315147 534.659790,111.666725 533.308533,111.733704 
	C529.422729,111.926315 525.455750,111.406776 521.589111,110.758385 
	C518.674561,110.269630 515.325439,107.800308 513.152222,108.669388 
	C510.672241,109.661110 509.274811,113.371887 507.429871,115.917656 
	C507.277222,116.128258 507.300140,116.466080 507.219452,116.849380 
	C516.231750,123.640129 526.432373,125.545227 537.345886,123.778915 
	C545.450989,122.467133 550.569885,116.847153 551.008667,109.529327 
	C551.497437,101.377975 548.046570,96.330894 539.981750,94.076225 
	C535.363953,92.785225 530.537720,92.231934 525.935547,90.897385 
	C524.352905,90.438461 523.165283,88.617706 521.797180,87.419090 
	C523.285828,86.300774 524.635193,84.622231 526.299011,84.208580 
	C528.295044,83.712341 530.559082,84.294571 533.485107,84.703781 
M574.764465,123.919540 
	C579.330872,123.919540 583.897278,123.919540 588.507324,123.919540 
	C588.507324,120.086105 588.507324,116.634163 588.507324,113.016708 
	C583.955505,112.835327 579.166382,112.965851 579.061218,106.734344 
	C578.935669,99.294502 579.031616,91.850937 579.031616,83.851257 
	C582.536499,83.851257 585.745239,83.851257 588.659912,83.851257 
	C588.659912,79.541260 588.659912,75.800171 588.659912,71.694733 
	C585.220764,71.694733 582.135681,71.694733 578.769287,71.694733 
	C578.769287,67.217491 578.769287,63.118362 578.769287,58.933632 
	C574.200012,58.933632 569.936096,58.933632 565.141479,58.933632 
	C565.141479,63.397907 565.141479,67.616310 565.141479,71.756218 
	C562.859558,71.973251 561.112488,72.139412 559.499023,72.292862 
	C559.499023,76.395348 559.499023,80.119339 559.499023,83.802361 
	C561.608948,83.992775 563.369019,84.151611 565.567383,84.350006 
	C565.567383,94.282951 565.473511,103.917679 565.603760,113.549377 
	C565.677856,119.031822 568.463684,122.584229 574.764465,123.919540 
z"/>
<path fill="#F2F2F2" opacity="1.000000" stroke="none" 
	d="
M86.414536,94.548340 
	C67.354507,80.609230 73.806725,81.644188 48.471348,85.568344 
	C40.489895,86.804581 32.355946,88.923271 24.421507,85.172234 
	C22.636681,84.328461 20.395445,83.593269 19.404854,82.112167 
	C17.578062,79.380783 15.129752,75.908852 15.572100,73.170631 
	C15.946751,70.851463 19.740873,68.186905 22.534014,67.313683 
	C33.830994,63.781891 44.925991,66.737244 55.861137,69.668739 
	C59.661869,70.687630 63.116478,73.013916 66.922165,73.992691 
	C69.766312,74.724159 73.165901,75.038765 75.896469,74.187065 
	C94.013794,68.535950 111.964302,62.349770 130.083878,56.706196 
	C137.369797,54.436901 144.615128,55.062920 150.746155,60.372410 
	C151.978622,61.439743 153.355179,62.716400 153.833328,64.170181 
	C154.284027,65.540421 153.637527,67.271545 153.473694,68.843903 
	C151.952652,68.617088 150.407593,68.486259 148.922729,68.114777 
	C148.353180,67.972275 147.684036,67.375961 147.462128,66.824669 
	C144.591446,59.693142 139.065933,60.293488 133.338379,62.097710 
	C114.874672,67.913925 96.450249,73.854828 76.720108,80.160103 
	C86.154144,86.248154 94.444016,91.856224 103.044037,96.939583 
	C104.863510,98.015053 107.902306,97.599808 110.233093,97.136261 
	C119.017632,95.389160 127.685539,92.991814 136.514145,91.559074 
	C140.486237,90.914482 144.839874,91.489471 148.831055,92.369644 
	C154.295792,93.574791 157.740814,98.056847 157.951920,102.921555 
	C158.171616,107.984253 154.800491,112.569298 149.325287,114.490616 
	C141.771027,117.141487 134.240067,116.239624 126.751144,114.150917 
	C123.072365,113.124886 119.264885,112.362801 115.784615,110.858864 
	C104.539085,105.999290 96.167145,112.852501 86.819466,117.651894 
	C95.995331,126.020462 105.476646,133.334991 118.169922,134.901764 
	C117.988541,134.415253 117.807159,133.928726 117.625778,133.442200 
	C119.574371,132.399338 121.645912,130.314926 123.446304,130.527481 
	C127.358932,130.989365 129.277939,134.119995 129.295105,138.046936 
	C129.310745,141.624771 127.044914,143.039978 123.748978,142.949921 
	C114.667511,142.701782 106.594795,139.299149 99.076500,134.546707 
	C94.316521,131.537827 89.751495,128.197800 85.260605,124.793159 
	C81.656342,122.060692 77.840294,121.149345 73.571739,122.569130 
	C67.926369,124.446869 62.551884,124.052307 57.117233,121.554726 
	C54.765232,120.473816 51.790161,120.745361 49.442963,119.658104 
	C45.658131,117.904884 41.488441,116.176529 38.705559,113.266800 
	C35.087547,109.483879 36.933182,104.538231 42.117317,104.206406 
	C48.284470,103.811668 54.551716,104.960693 60.773041,105.471855 
	C61.252415,105.511238 61.709927,105.800781 62.180477,105.965866 
	C79.661484,112.098701 80.091255,112.057373 96.950706,102.534531 
	C93.484886,99.908134 90.092278,97.337227 86.414536,94.548340 
M154.270859,102.561409 
	C152.240128,100.710060 150.479416,97.774666 148.133118,97.190254 
	C136.384872,94.264023 125.819046,99.793602 113.556717,102.450096 
	C115.313087,104.131218 116.131042,105.606628 117.221069,105.846695 
	C125.151596,107.593300 133.081604,109.764938 141.124802,110.424812 
	C146.268967,110.846848 152.549698,110.623322 154.270859,102.561409 
M38.186024,70.188316 
	C33.564472,70.604530 28.878132,70.697052 24.354500,71.602470 
	C22.638403,71.945946 20.026104,74.227386 20.092487,75.507820 
	C20.184494,77.282509 22.213617,79.180084 23.807896,80.573639 
	C24.839426,81.475296 26.554869,81.656464 28.000233,82.012955 
	C39.778625,84.918068 50.784821,80.935730 62.358532,78.706337 
	C58.973213,74.449135 54.610096,72.939369 38.186024,70.188316 
M64.591049,115.507195 
	C65.735092,115.131157 66.879135,114.755112 68.215538,114.315849 
	C64.530022,110.463722 48.473679,106.077400 44.174881,107.823738 
	C42.732174,108.409813 41.785557,110.217072 40.612186,111.466156 
	C41.896709,112.580780 43.096066,114.526062 44.480320,114.667999 
	C50.887714,115.324944 57.346466,115.480942 64.591049,115.507195 
z"/>
<path fill="#F9F9F9" opacity="1.000000" stroke="none" 
	d="
M245.638947,104.794128 
	C243.820999,117.879349 235.618500,124.167290 220.386337,124.522324 
	C208.545502,124.798317 199.027756,121.660255 188.931992,113.912674 
	C191.393555,110.365974 193.879089,106.784752 196.414917,103.131058 
	C204.463501,108.331322 212.561859,112.369118 222.214798,111.044479 
	C223.974533,110.802986 226.054779,110.470345 227.282898,109.383827 
	C228.889343,107.962608 230.771133,105.722488 230.720016,103.885124 
	C230.671783,102.151382 228.604706,99.708054 226.837067,98.950699 
	C223.384445,97.471382 219.452454,97.161453 215.843246,95.985794 
	C209.603882,93.953384 202.757767,92.702606 197.417770,89.210220 
	C185.493042,81.411354 187.427338,64.595451 200.331635,58.608719 
	C213.593628,52.456036 231.192780,54.936768 242.458511,64.628174 
	C239.924576,68.077606 237.384216,71.535782 234.707230,75.179947 
	C227.684738,70.725822 220.529755,67.436470 212.142853,68.898506 
	C210.686417,69.152390 208.942642,69.254745 207.915298,70.120079 
	C206.402023,71.394737 204.614594,73.220772 204.460770,74.947121 
	C204.343735,76.260384 206.326599,78.590279 207.824173,79.072037 
	C213.797638,80.993629 219.957520,82.329292 226.026245,83.964058 
	C228.902740,84.738914 231.844589,85.436111 234.556625,86.625122 
	C242.220062,89.984894 245.856995,96.030540 245.638947,104.794128 
z"/>
<path fill="#F8F8F8" opacity="1.000000" stroke="none" 
	d="
M384.679138,100.008842 
	C394.972137,114.749023 407.759338,115.025467 422.030853,100.932930 
	C426.209381,102.564278 430.493805,104.236961 434.806732,105.920776 
	C427.863434,119.599678 411.239868,127.137886 395.932800,123.770889 
	C379.297302,120.111687 368.005219,106.951431 367.438538,90.562546 
	C366.905396,75.143288 377.897644,60.848106 393.672516,56.445728 
	C409.419830,52.051037 426.632904,59.097515 434.944794,73.578880 
	C430.643311,75.275970 426.388336,76.954697 423.428253,78.122559 
	C417.654449,74.734535 413.074768,70.934357 407.815521,69.224327 
	C400.101166,66.716019 393.115479,69.601082 387.709839,75.630356 
	C382.006256,81.991982 380.485168,89.267380 383.610535,97.357849 
	C383.909088,98.130722 384.191467,98.909843 384.679138,100.008842 
z"/>
<path fill="#FBFBFB" opacity="1.000000" stroke="none" 
	d="
M473.899963,72.839928 
	C476.807800,74.155983 479.328094,75.325958 482.104156,76.614670 
	C482.324707,75.590790 482.579346,74.408737 482.862732,73.093048 
	C487.128204,73.093048 491.254303,73.093048 495.730713,73.093048 
	C495.730713,89.572266 495.730713,106.102371 495.730713,122.640045 
	C485.716431,124.308060 483.112457,123.737877 482.389252,120.759109 
	C476.520813,121.908089 470.770660,123.524323 464.922852,124.046295 
	C458.578644,124.612587 453.357147,121.285141 449.013641,116.949707 
	C441.434174,109.384277 439.826904,94.072670 445.347076,84.322128 
	C451.052856,74.243668 461.264587,70.027672 473.899963,72.839928 
M458.784180,107.643959 
	C459.642365,108.414642 460.411285,109.327217 461.373535,109.932465 
	C466.725769,113.299011 474.041229,112.916199 478.574341,109.113342 
	C482.841156,105.533852 484.390900,97.942810 482.038635,92.144165 
	C479.678741,86.326782 475.051544,83.587181 468.151154,83.921936 
	C457.043732,84.460785 452.047546,96.190903 458.784180,107.643959 
z"/>
<path fill="#F9F9F9" opacity="1.000000" stroke="none" 
	d="
M294.948730,73.059448 
	C297.725922,73.059448 300.041351,73.059448 303.392670,73.059448 
	C296.415680,81.223145 289.929016,88.813087 283.276886,96.596649 
	C290.001648,105.177750 296.703674,113.729836 304.096436,123.163361 
	C298.370361,123.163361 293.630859,123.328308 288.917969,123.047035 
	C287.744385,122.976997 286.446960,121.641205 285.566071,120.586800 
	C281.846863,116.134888 278.263489,111.569496 274.750641,107.195282 
	C268.000854,110.749878 269.837433,117.165611 269.401184,122.935516 
	C264.848083,122.935516 260.603882,122.935516 256.086273,122.935516 
	C256.086273,100.123497 256.086273,77.389397 256.086273,54.321754 
	C260.305267,54.321754 264.687469,54.321754 269.480225,54.321754 
	C269.480225,67.136406 269.480225,79.887985 269.480225,94.279152 
	C274.114594,88.570679 278.068207,84.226921 281.399109,79.449043 
	C284.691803,74.725952 288.432983,71.740105 294.948730,73.059448 
z"/>
<path fill="#FBFBFB" opacity="1.000000" stroke="none" 
	d="
M313.322021,89.685394 
	C310.848480,84.061577 308.556885,78.770996 306.054626,72.994026 
	C310.855865,72.994026 315.174255,72.701057 319.410919,73.160812 
	C320.800690,73.311623 322.537384,75.180305 323.161774,76.664581 
	C326.945801,85.660164 330.453888,94.771820 334.502594,104.974686 
	C338.664612,93.707909 342.455444,83.446007 346.271698,73.115273 
	C351.367584,73.115273 356.351196,73.115273 362.042114,73.115273 
	C352.646271,96.234055 343.346313,119.116859 334.091492,141.888626 
	C328.956696,141.888626 324.190063,141.888626 319.053101,141.888626 
	C321.559784,135.787308 324.090271,130.031845 326.238342,124.137016 
	C326.830902,122.510841 326.836945,120.234871 326.168549,118.656693 
	C322.098297,109.046593 317.755676,99.551857 313.322021,89.685394 
z"/>
<path fill="#F9F9F9" opacity="1.000000" stroke="none" 
	d="
M533.096069,84.556778 
	C530.559082,84.294571 528.295044,83.712341 526.299011,84.208580 
	C524.635193,84.622231 523.285828,86.300774 521.797180,87.419083 
	C523.165283,88.617706 524.352905,90.438461 525.935547,90.897385 
	C530.537720,92.231934 535.363953,92.785225 539.981750,94.076225 
	C548.046570,96.330894 551.497437,101.377975 551.008667,109.529327 
	C550.569885,116.847153 545.450989,122.467133 537.345886,123.778915 
	C526.432373,125.545227 516.231750,123.640129 507.219452,116.849380 
	C507.300140,116.466080 507.277222,116.128258 507.429871,115.917656 
	C509.274811,113.371887 510.672241,109.661110 513.152222,108.669388 
	C515.325439,107.800308 518.674561,110.269630 521.589111,110.758385 
	C525.455750,111.406776 529.422729,111.926315 533.308533,111.733704 
	C534.659790,111.666725 535.897766,109.315147 537.187500,108.006996 
	C535.899536,106.948219 534.763306,105.335167 533.295471,104.933311 
	C528.670715,103.667160 523.828918,103.166939 519.239685,101.803154 
	C509.672577,98.960136 505.419006,91.002785 508.957031,82.146683 
	C510.030121,79.460594 512.377625,76.479607 514.912903,75.318703 
	C526.873474,69.841995 538.385376,70.991486 549.466492,79.262955 
	C547.144897,82.315437 544.979797,85.162140 542.616943,88.268929 
	C539.531677,87.064423 536.508423,85.884102 533.096069,84.556778 
z"/>
<path fill="#F8F8F8" opacity="1.000000" stroke="none" 
	d="
M574.363098,123.848495 
	C568.463684,122.584229 565.677856,119.031822 565.603760,113.549377 
	C565.473511,103.917679 565.567383,94.282951 565.567383,84.350006 
	C563.369019,84.151611 561.608948,83.992775 559.499023,83.802361 
	C559.499023,80.119339 559.499023,76.395348 559.499023,72.292862 
	C561.112488,72.139412 562.859558,71.973251 565.141479,71.756218 
	C565.141479,67.616310 565.141479,63.397907 565.141479,58.933632 
	C569.936096,58.933632 574.200012,58.933632 578.769287,58.933632 
	C578.769287,63.118362 578.769287,67.217491 578.769287,71.694733 
	C582.135681,71.694733 585.220764,71.694733 588.659912,71.694733 
	C588.659912,75.800171 588.659912,79.541260 588.659912,83.851257 
	C585.745239,83.851257 582.536499,83.851257 579.031616,83.851257 
	C579.031616,91.850937 578.935669,99.294502 579.061218,106.734344 
	C579.166382,112.965851 583.955505,112.835327 588.507324,113.016708 
	C588.507324,116.634163 588.507324,120.086105 588.507324,123.919540 
	C583.897278,123.919540 579.330872,123.919540 574.363098,123.848495 
z"/>
<path fill="#191919" opacity="1.000000" stroke="none" 
	d="
M154.270905,102.968842 
	C152.549698,110.623322 146.268967,110.846848 141.124802,110.424812 
	C133.081604,109.764938 125.151596,107.593300 117.221069,105.846695 
	C116.131042,105.606628 115.313087,104.131218 113.556717,102.450096 
	C125.819046,99.793602 136.384872,94.264023 148.133118,97.190254 
	C150.479416,97.774666 152.240128,100.710060 154.270905,102.968842 
z"/>
<path fill="#191919" opacity="1.000000" stroke="none" 
	d="
M38.632088,70.221809 
	C54.610096,72.939369 58.973213,74.449135 62.358532,78.706337 
	C50.784821,80.935730 39.778625,84.918068 28.000233,82.012955 
	C26.554869,81.656464 24.839426,81.475296 23.807896,80.573639 
	C22.213617,79.180084 20.184494,77.282509 20.092487,75.507820 
	C20.026104,74.227386 22.638403,71.945946 24.354500,71.602470 
	C28.878132,70.697052 33.564472,70.604530 38.632088,70.221809 
z"/>
<path fill="#1E1E1E" opacity="1.000000" stroke="none" 
	d="
M64.188934,115.661797 
	C57.346466,115.480942 50.887714,115.324944 44.480320,114.667999 
	C43.096066,114.526062 41.896709,112.580780 40.612186,111.466156 
	C41.785557,110.217072 42.732174,108.409813 44.174881,107.823738 
	C48.473679,106.077400 64.530022,110.463722 68.215538,114.315849 
	C66.879135,114.755112 65.735092,115.131157 64.188934,115.661797 
z"/>
<path fill="#151515" opacity="1.000000" stroke="none" 
	d="
M458.535156,107.363541 
	C452.047546,96.190903 457.043732,84.460785 468.151154,83.921936 
	C475.051544,83.587181 479.678741,86.326782 482.038635,92.144165 
	C484.390900,97.942810 482.841156,105.533852 478.574341,109.113342 
	C474.041229,112.916199 466.725769,113.299011 461.373535,109.932465 
	C460.411285,109.327217 459.642365,108.414642 458.535156,107.363541 
z"/>
</svg>