<svg version="1.1" id="Layer_1" xmlns="http://www.w3.org/2000/svg" xmlns:xlink="http://www.w3.org/1999/xlink" x="0px" y="0px"
	 width="100%" viewBox="0 0 652 164" enable-background="new 0 0 652 164" xml:space="preserve">
<path fill="#FEFEFE" opacity="1.000000" stroke="none" 
	d="
M543.000000,165.000000 
	C362.000031,165.000000 181.500061,165.000000 1.000073,165.000000 
	C1.000048,110.333374 1.000048,55.666752 1.000024,1.000095 
	C218.333252,1.000063 435.666504,1.000063 652.999817,1.000032 
	C652.999878,55.666576 652.999878,110.333153 652.999939,164.999863 
	C616.500000,165.000000 580.000000,165.000000 543.000000,165.000000 
M119.714645,119.656715 
	C107.595749,117.831123 98.345772,111.039810 89.379120,103.192741 
	C96.812660,96.287354 108.714737,93.160828 117.094124,95.493355 
	C121.567528,96.738594 125.996727,98.145760 130.482346,99.343254 
	C137.996246,101.349205 145.517944,102.200226 152.980911,99.032036 
	C157.662567,97.044594 160.642990,93.773170 160.688675,88.490181 
	C160.730865,83.608772 157.663498,79.155815 152.490112,77.805542 
	C148.395447,76.736809 143.866821,75.931259 139.769104,76.560379 
	C130.778259,77.940750 121.965683,80.445709 113.019257,82.175705 
	C110.543839,82.654388 107.324936,82.914665 105.353874,81.745949 
	C96.927269,76.749504 88.839813,71.181099 79.381607,65.007286 
	C100.223068,58.526733 119.671837,52.430046 139.159195,46.459312 
	C143.283661,45.195621 147.038940,45.459805 149.132553,50.252701 
	C149.682404,51.511463 151.016617,52.669937 152.277527,53.303318 
	C153.397614,53.865959 155.542160,54.221859 156.107132,53.616627 
	C156.905182,52.761681 157.101746,50.815250 156.749557,49.561844 
	C156.378204,48.240192 155.186050,47.054077 154.133728,46.034550 
	C148.114868,40.203209 140.752472,39.324589 133.250977,41.650455 
	C115.139908,47.265873 97.209618,53.463261 79.112793,59.126778 
	C76.354095,59.990135 72.915451,59.911739 70.104607,59.135048 
	C63.105675,57.201088 56.410652,54.093960 49.364830,52.421947 
	C40.935120,50.421535 32.252186,49.514000 23.802198,52.800587 
	C17.457184,55.268452 16.110569,60.039570 20.456730,65.247688 
	C24.421539,69.998833 29.862803,72.464752 35.908989,71.979874 
	C45.498150,71.210869 54.999584,69.330994 64.589882,68.601067 
	C68.685600,68.289337 73.653862,68.500832 76.931236,70.547409 
	C84.927612,75.540810 92.168388,81.744217 99.955070,87.643562 
	C98.158928,88.548820 96.773232,89.133377 95.501869,89.906059 
	C85.658783,95.888206 76.145271,96.951202 65.187019,91.395393 
	C59.583134,88.554230 51.973072,88.953346 45.307499,89.152382 
	C40.088188,89.308258 37.991257,94.218422 41.482803,98.075470 
	C44.271435,101.156021 48.695461,102.901634 52.624084,104.749825 
	C54.956745,105.847198 57.913872,105.596397 60.278477,106.650856 
	C65.734299,109.083801 71.097733,109.363266 76.752373,107.521721 
	C80.585114,106.273521 84.142776,106.849922 87.522362,109.455162 
	C92.112175,112.993332 96.892342,116.315109 101.787788,119.419121 
	C109.150856,124.087738 117.027740,127.551910 125.916725,127.968109 
	C129.534012,128.137497 132.179352,126.928970 132.116089,122.675949 
	C132.054749,118.552437 128.593887,114.715973 125.022079,115.349525 
	C123.771721,115.571327 122.807945,117.408813 121.073349,119.002129 
	C120.884903,119.194664 120.696457,119.387199 119.714645,119.656715 
M239.593491,57.120350 
	C241.429001,54.589890 243.264511,52.059425 245.268539,49.296646 
	C231.709167,39.643356 217.397537,37.081066 202.345718,44.121025 
	C189.786240,49.995277 188.697205,66.892525 200.281937,74.566879 
	C204.302551,77.230362 209.298569,78.572968 214.004791,80.008255 
	C218.907944,81.503586 224.127472,82.017044 228.945374,83.709381 
	C230.898438,84.395409 233.493011,87.143829 233.392868,88.809311 
	C233.265610,90.925850 231.102753,93.674797 229.077301,94.729630 
	C226.595520,96.022110 223.132935,96.754158 220.472397,96.126427 
	C213.199661,94.410522 206.125351,91.853653 198.242233,89.402809 
	C196.642975,91.705734 194.126099,95.330040 191.519073,99.084145 
	C203.943542,108.831703 217.562943,111.536469 232.216812,108.160912 
	C242.977661,105.682114 248.040512,98.948692 248.142502,88.825958 
	C248.240631,79.085480 243.623520,73.233253 232.841141,70.140526 
	C226.152313,68.221954 219.284439,66.934746 212.561981,65.122818 
	C209.670624,64.343491 206.009003,62.927563 207.301910,59.269993 
	C208.087357,57.047997 211.177429,54.832935 213.650192,54.167103 
	C220.962799,52.198059 227.775345,54.507076 234.062500,58.320824 
	C236.091888,59.551834 237.785934,60.653275 239.593491,57.120350 
M385.827789,103.765556 
	C407.281097,116.884880 430.540344,105.474319 436.933197,90.873734 
	C434.936615,90.100906 432.819092,89.556412 430.982849,88.515579 
	C426.604553,86.033775 423.517456,86.318375 419.593018,90.338318 
	C412.822845,97.273148 403.729156,98.019936 395.796722,93.777412 
	C387.841675,89.522789 383.352753,80.720367 384.791748,71.628098 
	C386.163513,62.960342 391.276062,57.103634 399.516052,54.449421 
	C407.902161,51.748127 415.060669,54.410934 421.250671,60.509277 
	C422.543610,61.783066 424.982117,63.056175 426.509644,62.697655 
	C430.142242,61.845074 433.545593,60.015739 437.058167,58.574249 
	C429.709625,44.139603 411.175629,36.672974 394.999542,41.794594 
	C381.524323,46.061073 372.654236,55.282856 370.314117,69.213821 
	C367.932953,83.388863 373.450867,94.938354 385.827789,103.765556 
M498.175934,105.415512 
	C498.175934,89.677727 498.175934,73.939941 498.175934,58.070633 
	C493.488861,58.070633 489.375031,58.070633 485.262482,58.070633 
	C484.919861,59.518471 484.612610,60.817020 484.265167,62.285339 
	C476.387024,56.152107 465.292786,55.148594 457.286041,59.603088 
	C448.754395,64.349594 442.804108,75.057770 444.437897,84.722610 
	C448.613464,109.423523 463.216125,113.789780 484.664581,104.829720 
	C484.780548,105.591393 484.963043,106.789986 485.173492,108.172043 
	C488.914825,108.172043 492.404022,108.278542 495.877411,108.091370 
	C496.669006,108.048714 497.405884,106.990837 498.175934,105.415512 
M290.957794,75.476303 
	C295.774475,69.882858 300.591187,64.289413 305.956299,58.059128 
	C301.668396,58.059128 298.336334,58.365837 295.085327,57.983341 
	C290.791077,57.478096 288.076141,59.085205 285.571075,62.529079 
	C281.650940,67.918320 277.174530,72.902885 272.933746,78.058868 
	C272.596771,77.926010 272.259766,77.793159 271.922791,77.660301 
	C271.922791,64.809891 271.922791,51.959488 271.922791,39.288307 
	C267.125214,39.288307 262.870331,39.288307 258.562317,39.288307 
	C258.562317,62.323715 258.562317,85.058441 258.562317,107.815674 
	C263.224396,107.815674 267.602600,107.815674 271.955872,107.815674 
	C272.371124,96.071182 272.371124,96.071182 277.500763,92.363136 
	C281.020355,96.772324 284.468658,101.250412 288.118103,105.558098 
	C289.086731,106.701401 290.628784,107.969719 291.984344,108.062851 
	C296.525818,108.374870 301.102051,108.181282 306.611298,108.181282 
	C299.244751,98.759636 292.541260,90.186035 285.796844,81.560135 
	C287.515076,79.575539 289.036011,77.818794 290.957794,75.476303 
M351.021545,57.993282 
	C349.726776,59.377514 347.872192,60.542698 347.230591,62.182484 
	C343.777069,71.008659 340.624939,79.952744 336.964172,89.962601 
	C332.813324,79.541145 329.232147,70.317390 325.404175,61.197208 
	C324.849213,59.874943 323.184265,58.255257 321.908264,58.138714 
	C317.688568,57.753330 313.411743,57.993343 308.661285,57.993343 
	C309.409424,59.938305 309.872223,61.324165 310.464294,62.652420 
	C316.126526,75.355026 321.593964,88.151924 327.610504,100.684975 
	C329.614288,104.859077 329.615875,108.286102 327.694122,112.285835 
	C325.452789,116.950729 323.643402,121.823158 321.448303,127.080391 
	C325.654877,127.080391 328.992920,126.859085 332.287170,127.144035 
	C335.439270,127.416679 336.964050,126.292542 338.103394,123.310043 
	C342.003723,113.099854 346.212524,103.007347 350.317627,92.875595 
	C354.963074,81.410240 359.623596,69.950989 364.479095,57.992783 
	C359.852264,57.992783 355.886383,57.992783 351.021545,57.993282 
M553.079895,93.464256 
	C552.675171,85.034477 549.691833,81.189934 541.452209,79.001755 
	C536.968567,77.811058 532.334839,77.172653 527.877197,75.904343 
	C526.381165,75.478676 525.219971,73.875786 523.905762,72.810974 
	C525.265442,71.591125 526.473816,69.642960 528.020142,69.321884 
	C530.348145,68.838493 533.005188,69.138062 535.353516,69.751205 
	C538.487305,70.569412 541.459412,72.007027 544.652771,73.237091 
	C546.948853,70.254387 549.134644,67.414879 551.304810,64.595673 
	C541.703613,56.272182 527.267761,54.641788 516.545471,60.408978 
	C512.721191,62.465950 510.671997,65.680458 510.123413,69.904816 
	C509.015778,78.434235 512.649353,84.119293 521.366882,86.732033 
	C526.120483,88.156754 531.118713,88.752701 535.910522,90.071587 
	C537.203857,90.427567 539.027649,92.067314 539.017212,93.101761 
	C539.005310,94.281143 537.421875,95.848579 536.141174,96.501740 
	C534.761475,97.205391 532.836548,97.513512 531.332092,97.177216 
	C526.093750,96.006264 520.934448,94.481606 515.361450,92.988647 
	C513.482300,95.500862 511.302002,98.415726 509.080963,101.385086 
	C516.216248,107.531067 524.651550,109.608780 533.622070,109.396019 
	C545.746033,109.108459 551.997986,104.020660 553.079895,93.464256 
M569.417664,104.812401 
	C575.471436,111.203224 583.067017,109.255760 590.351074,109.120987 
	C590.351074,105.137169 590.351074,101.586388 590.351074,97.922203 
	C586.124207,97.894852 581.577942,98.023766 581.267639,92.881355 
	C580.792053,85.000397 581.142639,77.069580 581.142639,68.784599 
	C584.681641,68.784599 587.768127,68.784599 590.711182,68.784599 
	C590.711182,64.647484 590.711182,60.906364 590.711182,56.797859 
	C587.326050,56.797859 584.241638,56.797859 580.886902,56.797859 
	C580.886902,52.307667 580.886902,48.195721 580.886902,44.065437 
	C576.216980,44.065437 571.843018,44.065437 567.096436,44.065437 
	C567.096436,48.549042 567.096436,52.642250 567.096436,56.840759 
	C564.968506,56.963291 563.215637,57.064228 561.447876,57.166016 
	C561.447876,61.292370 561.447876,65.026176 561.447876,68.817078 
	C563.501892,68.969040 565.264465,69.099434 567.282532,69.248726 
	C567.282532,77.685242 567.111877,85.820885 567.363831,93.943413 
	C567.469482,97.348953 568.470520,100.726707 569.417664,104.812401 
z"/>
<path fill="#1D1D1D" opacity="1.000000" stroke="none" 
	d="
M121.713310,118.508507 
	C122.807945,117.408813 123.771721,115.571327 125.022079,115.349525 
	C128.593887,114.715973 132.054749,118.552437 132.116089,122.675949 
	C132.179352,126.928970 129.534012,128.137497 125.916725,127.968109 
	C117.027740,127.551910 109.150856,124.087738 101.787788,119.419121 
	C96.892342,116.315109 92.112175,112.993332 87.522362,109.455162 
	C84.142776,106.849922 80.585114,106.273521 76.752373,107.521721 
	C71.097733,109.363266 65.734299,109.083801 60.278477,106.650856 
	C57.913872,105.596397 54.956745,105.847198 52.624084,104.749825 
	C48.695461,102.901634 44.271435,101.156021 41.482803,98.075470 
	C37.991257,94.218422 40.088188,89.308258 45.307499,89.152382 
	C51.973072,88.953346 59.583134,88.554230 65.187019,91.395393 
	C76.145271,96.951202 85.658783,95.888206 95.501869,89.906059 
	C96.773232,89.133377 98.158928,88.548820 99.955070,87.643562 
	C92.168388,81.744217 84.927612,75.540810 76.931236,70.547409 
	C73.653862,68.500832 68.685600,68.289337 64.589882,68.601067 
	C54.999584,69.330994 45.498150,71.210869 35.908989,71.979874 
	C29.862803,72.464752 24.421539,69.998833 20.456730,65.247688 
	C16.110569,60.039570 17.457184,55.268452 23.802198,52.800587 
	C32.252186,49.514000 40.935120,50.421535 49.364830,52.421947 
	C56.410652,54.093960 63.105675,57.201088 70.104607,59.135048 
	C72.915451,59.911739 76.354095,59.990135 79.112793,59.126778 
	C97.209618,53.463261 115.139908,47.265873 133.250977,41.650455 
	C140.752472,39.324589 148.114868,40.203209 154.133728,46.034550 
	C155.186050,47.054077 156.378204,48.240192 156.749557,49.561844 
	C157.101746,50.815250 156.905182,52.761681 156.107132,53.616627 
	C155.542160,54.221859 153.397614,53.865959 152.277527,53.303318 
	C151.016617,52.669937 149.682404,51.511463 149.132553,50.252701 
	C147.038940,45.459805 143.283661,45.195621 139.159195,46.459312 
	C119.671837,52.430046 100.223068,58.526733 79.381607,65.007286 
	C88.839813,71.181099 96.927269,76.749504 105.353874,81.745949 
	C107.324936,82.914665 110.543839,82.654388 113.019257,82.175705 
	C121.965683,80.445709 130.778259,77.940750 139.769104,76.560379 
	C143.866821,75.931259 148.395447,76.736809 152.490112,77.805542 
	C157.663498,79.155815 160.730865,83.608772 160.688675,88.490181 
	C160.642990,93.773170 157.662567,97.044594 152.980911,99.032036 
	C145.517944,102.200226 137.996246,101.349205 130.482346,99.343254 
	C125.996727,98.145760 121.567528,96.738594 117.094124,95.493355 
	C108.714737,93.160828 96.812660,96.287354 89.379120,103.192741 
	C98.345772,111.039810 107.595749,117.831123 120.350723,119.738838 
	C121.228981,119.383476 121.471146,118.945992 121.713310,118.508507 
M122.031654,91.495163 
	C124.594048,92.178993 127.120880,93.214867 129.725769,93.477921 
	C136.434052,94.155350 143.191208,94.969765 149.900162,94.769447 
	C153.493240,94.662163 156.966675,92.411644 157.028351,87.834747 
	C157.088150,83.397148 153.580383,82.478134 150.309326,81.867409 
	C138.709869,79.701729 128.386017,84.783051 117.580154,87.125519 
	C117.461166,87.626648 117.342178,88.127777 117.223190,88.628906 
	C118.564484,89.496567 119.905777,90.364220 122.031654,91.495163 
M56.876198,65.502075 
	C59.570263,64.932961 62.264332,64.363846 66.201927,63.532036 
	C64.197029,61.966423 63.242218,60.739269 62.017536,60.340111 
	C51.563370,56.932823 41.084251,53.485630 29.821310,55.906082 
	C26.758966,56.564190 22.621843,56.936092 23.113901,60.899757 
	C23.371555,62.975224 26.891638,64.681038 29.015596,66.461655 
	C29.477978,66.849289 30.270296,66.843422 30.910686,67.018677 
	C39.439087,69.352562 47.742832,67.314415 56.876198,65.502075 
M44.439465,94.266312 
	C42.790207,97.002396 43.842690,98.727402 46.626125,99.488510 
	C54.667385,101.687347 62.718468,102.289139 71.765640,99.206192 
	C69.912651,97.909431 68.882179,96.715416 67.626869,96.390793 
	C61.867096,94.901321 56.075947,93.477402 50.223473,92.439117 
	C48.649139,92.159821 46.819714,93.318436 44.439465,94.266312 
z"/>
<path fill="#171717" opacity="1.000000" stroke="none" 
	d="
M239.357452,57.391422 
	C237.785934,60.653275 236.091888,59.551834 234.062500,58.320824 
	C227.775345,54.507076 220.962799,52.198059 213.650192,54.167103 
	C211.177429,54.832935 208.087357,57.047997 207.301910,59.269993 
	C206.009003,62.927563 209.670624,64.343491 212.561981,65.122818 
	C219.284439,66.934746 226.152313,68.221954 232.841141,70.140526 
	C243.623520,73.233253 248.240631,79.085480 248.142502,88.825958 
	C248.040512,98.948692 242.977661,105.682114 232.216812,108.160912 
	C217.562943,111.536469 203.943542,108.831703 191.519073,99.084145 
	C194.126099,95.330040 196.642975,91.705734 198.242233,89.402809 
	C206.125351,91.853653 213.199661,94.410522 220.472397,96.126427 
	C223.132935,96.754158 226.595520,96.022110 229.077301,94.729630 
	C231.102753,93.674797 233.265610,90.925850 233.392868,88.809311 
	C233.493011,87.143829 230.898438,84.395409 228.945374,83.709381 
	C224.127472,82.017044 218.907944,81.503586 214.004791,80.008255 
	C209.298569,78.572968 204.302551,77.230362 200.281937,74.566879 
	C188.697205,66.892525 189.786240,49.995277 202.345718,44.121025 
	C217.397537,37.081066 231.709167,39.643356 245.268539,49.296646 
	C243.264511,52.059425 241.429001,54.589890 239.357452,57.391422 
z"/>
<path fill="#171717" opacity="1.000000" stroke="none" 
	d="
M385.529083,103.554115 
	C373.450867,94.938354 367.932953,83.388863 370.314117,69.213821 
	C372.654236,55.282856 381.524323,46.061073 394.999542,41.794594 
	C411.175629,36.672974 429.709625,44.139603 437.058167,58.574249 
	C433.545593,60.015739 430.142242,61.845074 426.509644,62.697655 
	C424.982117,63.056175 422.543610,61.783066 421.250671,60.509277 
	C415.060669,54.410934 407.902161,51.748127 399.516052,54.449421 
	C391.276062,57.103634 386.163513,62.960342 384.791748,71.628098 
	C383.352753,80.720367 387.841675,89.522789 395.796722,93.777412 
	C403.729156,98.019936 412.822845,97.273148 419.593018,90.338318 
	C423.517456,86.318375 426.604553,86.033775 430.982849,88.515579 
	C432.819092,89.556412 434.936615,90.100906 436.933197,90.873734 
	C430.540344,105.474319 407.281097,116.884880 385.529083,103.554115 
z"/>
<path fill="#151515" opacity="1.000000" stroke="none" 
	d="
M498.171936,105.907867 
	C497.405884,106.990837 496.669006,108.048714 495.877411,108.091370 
	C492.404022,108.278542 488.914825,108.172043 485.173492,108.172043 
	C484.963043,106.789986 484.780548,105.591393 484.664581,104.829720 
	C463.216125,113.789780 448.613464,109.423523 444.437897,84.722610 
	C442.804108,75.057770 448.754395,64.349594 457.286041,59.603088 
	C465.292786,55.148594 476.387024,56.152107 484.265167,62.285339 
	C484.612610,60.817020 484.919861,59.518471 485.262482,58.070633 
	C489.375031,58.070633 493.488861,58.070633 498.175934,58.070633 
	C498.175934,73.939941 498.175934,89.677727 498.171936,105.907867 
M479.981628,94.713417 
	C480.804016,93.891380 481.722137,93.144241 482.433319,92.235207 
	C487.170807,86.179749 485.721649,75.573540 479.599792,71.209648 
	C473.356262,66.759041 463.660370,68.597336 459.776276,74.968094 
	C456.632874,80.124054 457.247772,88.299568 461.112274,92.730186 
	C465.397339,97.642944 472.080475,98.531128 479.981628,94.713417 
z"/>
<path fill="#171717" opacity="1.000000" stroke="none" 
	d="
M290.757385,75.769173 
	C289.036011,77.818794 287.515076,79.575539 285.796844,81.560135 
	C292.541260,90.186035 299.244751,98.759636 306.611298,108.181282 
	C301.102051,108.181282 296.525818,108.374870 291.984344,108.062851 
	C290.628784,107.969719 289.086731,106.701401 288.118103,105.558098 
	C284.468658,101.250412 281.020355,96.772324 277.500763,92.363136 
	C272.371124,96.071182 272.371124,96.071182 271.955872,107.815674 
	C267.602600,107.815674 263.224396,107.815674 258.562317,107.815674 
	C258.562317,85.058441 258.562317,62.323715 258.562317,39.288307 
	C262.870331,39.288307 267.125214,39.288307 271.922791,39.288307 
	C271.922791,51.959488 271.922791,64.809891 271.922791,77.660301 
	C272.259766,77.793159 272.596771,77.926010 272.933746,78.058868 
	C277.174530,72.902885 281.650940,67.918320 285.571075,62.529079 
	C288.076141,59.085205 290.791077,57.478096 295.085327,57.983341 
	C298.336334,58.365837 301.668396,58.059128 305.956299,58.059128 
	C300.591187,64.289413 295.774475,69.882858 290.757385,75.769173 
z"/>
<path fill="#151515" opacity="1.000000" stroke="none" 
	d="
M351.471039,57.993034 
	C355.886383,57.992783 359.852264,57.992783 364.479095,57.992783 
	C359.623596,69.950989 354.963074,81.410240 350.317627,92.875595 
	C346.212524,103.007347 342.003723,113.099854 338.103394,123.310043 
	C336.964050,126.292542 335.439270,127.416679 332.287170,127.144035 
	C328.992920,126.859085 325.654877,127.080391 321.448303,127.080391 
	C323.643402,121.823158 325.452789,116.950729 327.694122,112.285835 
	C329.615875,108.286102 329.614288,104.859077 327.610504,100.684975 
	C321.593964,88.151924 316.126526,75.355026 310.464294,62.652420 
	C309.872223,61.324165 309.409424,59.938305 308.661285,57.993343 
	C313.411743,57.993343 317.688568,57.753330 321.908264,58.138714 
	C323.184265,58.255257 324.849213,59.874943 325.404175,61.197208 
	C329.232147,70.317390 332.813324,79.541145 336.964172,89.962601 
	C340.624939,79.952744 343.777069,71.008659 347.230591,62.182484 
	C347.872192,60.542698 349.726776,59.377514 351.471039,57.993034 
z"/>
<path fill="#171717" opacity="1.000000" stroke="none" 
	d="
M553.053406,93.894867 
	C551.997986,104.020660 545.746033,109.108459 533.622070,109.396019 
	C524.651550,109.608780 516.216248,107.531067 509.080963,101.385086 
	C511.302002,98.415726 513.482300,95.500862 515.361450,92.988647 
	C520.934448,94.481606 526.093750,96.006264 531.332092,97.177216 
	C532.836548,97.513512 534.761475,97.205391 536.141174,96.501740 
	C537.421875,95.848579 539.005310,94.281143 539.017212,93.101761 
	C539.027649,92.067314 537.203857,90.427567 535.910522,90.071587 
	C531.118713,88.752701 526.120483,88.156754 521.366882,86.732033 
	C512.649353,84.119293 509.015778,78.434235 510.123413,69.904816 
	C510.671997,65.680458 512.721191,62.465950 516.545471,60.408978 
	C527.267761,54.641788 541.703613,56.272182 551.304810,64.595673 
	C549.134644,67.414879 546.948853,70.254387 544.652771,73.237091 
	C541.459412,72.007027 538.487305,70.569412 535.353516,69.751205 
	C533.005188,69.138062 530.348145,68.838493 528.020142,69.321884 
	C526.473816,69.642960 525.265442,71.591125 523.905762,72.810974 
	C525.219971,73.875786 526.381165,75.478676 527.877197,75.904343 
	C532.334839,77.172653 536.968567,77.811058 541.452209,79.001755 
	C549.691833,81.189934 552.675171,85.034477 553.053406,93.894867 
z"/>
<path fill="#181818" opacity="1.000000" stroke="none" 
	d="
M569.241089,104.464752 
	C568.470520,100.726707 567.469482,97.348953 567.363831,93.943413 
	C567.111877,85.820885 567.282532,77.685242 567.282532,69.248726 
	C565.264465,69.099434 563.501892,68.969040 561.447876,68.817078 
	C561.447876,65.026176 561.447876,61.292370 561.447876,57.166016 
	C563.215637,57.064228 564.968506,56.963291 567.096436,56.840759 
	C567.096436,52.642250 567.096436,48.549042 567.096436,44.065437 
	C571.843018,44.065437 576.216980,44.065437 580.886902,44.065437 
	C580.886902,48.195721 580.886902,52.307667 580.886902,56.797859 
	C584.241638,56.797859 587.326050,56.797859 590.711182,56.797859 
	C590.711182,60.906364 590.711182,64.647484 590.711182,68.784599 
	C587.768127,68.784599 584.681641,68.784599 581.142639,68.784599 
	C581.142639,77.069580 580.792053,85.000397 581.267639,92.881355 
	C581.577942,98.023766 586.124207,97.894852 590.351074,97.922203 
	C590.351074,101.586388 590.351074,105.137169 590.351074,109.120987 
	C583.067017,109.255760 575.471436,111.203224 569.241089,104.464752 
z"/>
<path fill="#F6F6F6" opacity="1.000000" stroke="none" 
	d="
M121.639359,91.363525 
	C119.905777,90.364220 118.564484,89.496567 117.223190,88.628906 
	C117.342178,88.127777 117.461166,87.626648 117.580154,87.125519 
	C128.386017,84.783051 138.709869,79.701729 150.309326,81.867409 
	C153.580383,82.478134 157.088150,83.397148 157.028351,87.834747 
	C156.966675,92.411644 153.493240,94.662163 149.900162,94.769447 
	C143.191208,94.969765 136.434052,94.155350 129.725769,93.477921 
	C127.120880,93.214867 124.594048,92.178993 121.639359,91.363525 
z"/>
<path fill="#F6F6F6" opacity="1.000000" stroke="none" 
	d="
M56.472939,65.613968 
	C47.742832,67.314415 39.439087,69.352562 30.910686,67.018677 
	C30.270296,66.843422 29.477978,66.849289 29.015596,66.461655 
	C26.891638,64.681038 23.371555,62.975224 23.113901,60.899757 
	C22.621843,56.936092 26.758966,56.564190 29.821310,55.906082 
	C41.084251,53.485630 51.563370,56.932823 62.017536,60.340111 
	C63.242218,60.739269 64.197029,61.966423 66.201927,63.532036 
	C62.264332,64.363846 59.570263,64.932961 56.472939,65.613968 
z"/>
<path fill="#F3F3F3" opacity="1.000000" stroke="none" 
	d="
M44.773430,94.041649 
	C46.819714,93.318436 48.649139,92.159821 50.223473,92.439117 
	C56.075947,93.477402 61.867096,94.901321 67.626869,96.390793 
	C68.882179,96.715416 69.912651,97.909431 71.765640,99.206192 
	C62.718468,102.289139 54.667385,101.687347 46.626125,99.488510 
	C43.842690,98.727402 42.790207,97.002396 44.773430,94.041649 
z"/>
<path fill="#FEFEFE" opacity="1.000000" stroke="none" 
	d="
M121.393326,118.755318 
	C121.471146,118.945992 121.228981,119.383476 120.747414,119.700348 
	C120.696457,119.387199 120.884903,119.194664 121.393326,118.755318 
z"/>
<path fill="#FCFCFC" opacity="1.000000" stroke="none" 
	d="
M479.660919,94.933029 
	C472.080475,98.531128 465.397339,97.642944 461.112274,92.730186 
	C457.247772,88.299568 456.632874,80.124054 459.776276,74.968094 
	C463.660370,68.597336 473.356262,66.759041 479.599792,71.209648 
	C485.721649,75.573540 487.170807,86.179749 482.433319,92.235207 
	C481.722137,93.144241 480.804016,93.891380 479.660919,94.933029 
z"/>
</svg>