<svg version="1.1" id="Layer_1" xmlns="http://www.w3.org/2000/svg" xmlns:xlink="http://www.w3.org/1999/xlink" x="0px" y="0px"
	 width="100%" viewBox="0 0 1200 721" enable-background="new 0 0 1200 721" xml:space="preserve">
<path fill="#245375" opacity="1.000000" stroke="none" 
	d="
M1115.000000,722.000000 
	C744.881348,722.000000 375.262695,721.989929 5.644080,722.123596 
	C1.365211,722.125122 0.902411,720.979736 0.904136,717.145203 
	C1.010841,480.009399 1.013514,242.873535 0.887615,5.737738 
	C0.885449,1.658497 1.731510,0.890107 5.761120,0.891290 
	C402.542877,1.007772 799.324646,1.010581 1196.106445,0.867788 
	C1200.622681,0.866162 1201.090820,2.155658 1201.089111,6.105206 
	C1200.989746,243.241028 1200.989380,480.376892 1201.095581,717.512695 
	C1201.097290,721.291626 1200.210938,722.122314 1196.487793,722.097351 
	C1169.492920,721.916016 1142.496094,722.000000 1115.000000,722.000000 
z"/>
<path fill="#38E08F" opacity="1.000000" stroke="none" 
	d="
M331.377563,422.145660 
	C328.681213,425.015625 325.712433,424.717773 322.755585,423.799500 
	C304.758728,418.210449 286.690735,412.849121 272.293030,399.617035 
	C267.029144,394.779266 260.443237,393.707886 253.548203,395.511078 
	C246.265778,397.415619 239.154877,397.488098 231.944244,394.961212 
	C227.084869,393.258270 221.977280,392.277374 217.029556,390.808899 
	C212.305008,389.406738 208.016220,387.225342 205.440353,382.724304 
	C203.616837,379.537872 202.541672,375.665161 204.505493,372.727722 
	C206.616623,369.569977 210.623367,367.979858 214.632477,368.467560 
	C225.852783,369.832520 237.143723,370.802643 247.577667,375.952362 
	C254.393997,379.316620 261.573700,378.622955 268.457123,375.813324 
	C273.848938,373.612610 279.051300,370.952148 284.395935,368.629578 
	C287.016479,367.490753 286.813049,366.525574 284.729553,364.956177 
	C275.146606,357.737946 265.663727,350.386536 256.060059,343.196259 
	C251.564255,339.830231 246.294449,338.968323 240.846207,339.621185 
	C227.619568,341.206116 214.414169,342.967072 201.195023,344.615570 
	C190.971527,345.890533 181.920593,343.471863 175.054382,335.432983 
	C168.351334,327.585114 170.563324,320.864838 180.408279,317.824127 
	C199.492371,311.929840 218.039673,315.710907 235.493240,322.985260 
	C246.577805,327.605072 256.006195,327.482941 267.008026,323.722778 
	C290.783661,315.596802 314.424469,306.938843 339.015961,301.335999 
	C349.187256,299.018585 357.818573,300.932892 365.072296,308.461578 
	C368.758820,312.287781 369.745361,317.204956 367.360565,319.073181 
	C365.126312,320.823456 361.079346,318.803589 358.051788,314.427063 
	C353.781525,308.254150 350.121613,306.685486 342.607452,308.982513 
	C316.647552,316.918335 290.755585,325.076416 264.845856,333.175720 
	C263.616058,333.560150 261.978699,333.789673 261.787262,335.356537 
	C261.597687,336.908386 263.125336,337.501038 264.197571,338.247009 
	C271.717651,343.478760 279.218323,348.738983 286.775024,353.917450 
	C295.196472,359.688446 304.381989,360.826691 313.963165,357.646515 
	C322.857117,354.694366 331.903442,352.610626 341.188568,351.449310 
	C347.710419,350.633606 354.182770,350.927490 360.559662,352.399506 
	C368.120117,354.144714 373.157898,359.473938 373.923950,366.174011 
	C374.730530,373.228455 371.036865,379.521057 363.820587,382.963898 
	C353.276123,387.994751 342.342957,386.379944 331.465729,384.482513 
	C325.057343,383.364655 318.801178,381.512146 312.729706,379.208740 
	C304.082031,375.927856 295.793243,376.416901 287.616821,380.624329 
	C284.656128,382.147827 281.555847,383.401428 278.604492,384.941589 
	C274.912170,386.868439 274.083679,390.964874 277.267578,393.388824 
	C287.358612,401.071259 297.698761,408.397797 310.326965,411.526367 
	C312.755066,412.127899 314.506287,411.721375 316.658997,410.133301 
	C321.902832,406.264771 326.676575,406.133575 329.999023,408.985565 
	C333.285583,411.806732 333.880219,416.502686 331.377563,422.145660 
z"/>
<path fill="#F8FAFB" opacity="1.000000" stroke="none" 
	d="
M487.667664,347.282471 
	C497.877869,354.058899 498.991943,363.954407 497.793365,374.466003 
	C496.667297,384.341858 490.966888,390.753845 481.634247,394.090546 
	C459.492065,402.007111 439.141418,398.192780 420.144714,384.945068 
	C418.440826,383.756775 417.758636,382.767090 419.369324,381.101440 
	C419.483948,380.982941 419.570526,380.836670 419.665985,380.700378 
	C422.434265,376.748932 424.391907,371.178467 428.186920,369.279236 
	C432.377563,367.181976 436.304199,372.777008 440.552948,374.593262 
	C448.030457,377.789764 455.596893,379.630890 463.796509,379.148376 
	C467.569092,378.926361 470.280579,377.546661 472.970093,374.977448 
	C479.341675,368.890930 477.968658,364.878845 469.878052,361.256042 
	C464.805603,358.984650 459.028076,358.201324 453.505737,357.041595 
	C445.316376,355.321777 437.521698,352.790192 430.250366,348.472107 
	C421.978149,343.559662 418.892761,336.256958 419.254944,327.097748 
	C419.642517,317.297302 422.918152,308.955841 432.641876,305.018097 
	C448.935089,298.420013 465.318085,298.130463 481.497467,305.647980 
	C484.962128,307.257812 488.279694,309.190796 491.772888,310.730042 
	C493.826660,311.635010 494.238708,312.554199 492.882965,314.383911 
	C490.113312,318.121796 487.545685,322.014069 484.680725,325.675201 
	C482.295349,328.723480 479.533203,327.078522 477.108490,325.635956 
	C469.812622,321.295319 462.134308,318.410980 453.486786,319.035126 
	C451.174652,319.201996 448.841888,319.505798 446.594818,320.057251 
	C442.721893,321.007751 440.080261,323.199219 439.785034,327.552185 
	C439.484741,331.980011 442.284210,333.918335 445.852051,334.893829 
	C455.948029,337.654175 466.087646,340.258911 476.237946,342.814362 
	C480.134735,343.795471 483.859039,345.128143 487.667664,347.282471 
z"/>
<path fill="#F8FAFB" opacity="1.000000" stroke="none" 
	d="
M708.042786,302.022278 
	C731.110474,295.672546 756.161377,305.788605 766.852661,325.618652 
	C765.962524,326.060425 765.034241,326.432373 764.196472,326.950592 
	C754.927124,332.683899 747.166565,332.398102 738.423706,324.343018 
	C728.031799,314.768463 712.275879,316.910156 701.309448,327.302948 
	C690.795166,337.267181 689.114258,353.066040 697.229248,365.649811 
	C705.933044,379.146484 721.588257,382.912933 735.554504,374.824524 
	C737.420654,373.743805 739.202759,372.497589 740.933777,371.207275 
	C748.943298,365.236786 757.541931,365.298004 765.611328,371.283875 
	C767.783630,372.895294 765.883850,373.898285 765.219971,374.873352 
	C753.950134,391.425385 738.160156,399.219025 718.302185,397.723572 
	C693.379272,395.846710 674.990845,378.509644 671.703735,354.660767 
	C668.593628,332.096069 681.294250,311.859589 703.875671,303.413422 
	C705.120667,302.947754 706.389282,302.545258 708.042786,302.022278 
z"/>
<path fill="#FAFAFC" opacity="1.000000" stroke="none" 
	d="
M782.116699,380.821289 
	C775.341553,367.801117 775.189087,354.992004 781.540100,342.208374 
	C790.416687,324.341095 811.970703,318.107849 829.687073,328.125946 
	C831.479370,329.139404 833.805786,332.272461 834.324402,326.932587 
	C834.488953,325.237885 852.352661,324.247284 853.363708,325.887238 
	C853.908325,326.770691 853.839233,328.107239 853.840759,329.239624 
	C853.868408,349.540649 853.910828,369.841888 853.839294,390.142700 
	C853.817627,396.293396 852.617004,397.218384 846.519897,397.627930 
	C842.382629,397.905853 838.566101,397.076874 835.000549,395.125275 
	C832.177429,393.580048 829.568359,393.557068 826.491333,394.680573 
	C817.160828,398.087372 807.678589,398.742340 798.249023,394.912201 
	C791.394226,392.127930 786.138916,387.435394 782.116699,380.821289 
z"/>
<path fill="#FCFDFD" opacity="1.000000" stroke="none" 
	d="
M572.401001,334.421692 
	C566.327942,341.530060 560.663452,348.532715 554.571777,355.141571 
	C552.051392,357.875946 552.461609,359.493683 554.582336,362.104919 
	C562.140381,371.411041 569.449402,380.919586 576.838867,390.362274 
	C577.851562,391.656372 578.786316,393.011505 579.795837,394.391327 
	C569.288452,398.840363 559.203369,396.748962 551.937866,388.532379 
	C548.411072,384.543976 545.079834,380.363159 541.918274,376.078918 
	C540.140259,373.669525 538.746704,373.819519 536.788513,375.697113 
	C532.510315,379.799530 531.783813,385.018463 532.363708,390.440887 
	C532.729126,393.857208 531.898438,395.226379 528.316650,395.267761 
	C524.336731,395.313782 520.345642,395.806580 516.393494,396.351532 
	C513.855164,396.701538 512.848328,396.176392 512.849243,393.347107 
	C512.859131,362.858734 512.777893,332.370209 512.626648,301.882172 
	C512.613647,299.260559 513.427917,298.274414 516.042358,298.490387 
	C521.291016,298.923889 527.889832,296.360046 531.420044,299.571136 
	C534.270569,302.163940 532.132263,308.733002 532.173645,313.534088 
	C532.271362,324.862274 532.168274,336.192169 532.243958,347.520691 
	C532.255554,349.253967 531.256836,351.777283 533.079895,352.566925 
	C535.130859,353.455231 535.904358,350.752045 536.960938,349.479553 
	C542.066040,343.331024 547.075867,337.099335 551.973877,330.784180 
	C555.189026,326.638855 559.150391,324.654083 564.472717,324.944427 
	C569.376953,325.211975 574.307190,325.001343 580.398132,325.001343 
	C577.289062,328.669342 574.963196,331.413300 572.401001,334.421692 
z"/>
<path fill="#F9FAFB" opacity="1.000000" stroke="none" 
	d="
M595.988403,325.180939 
	C606.476257,325.180939 606.458435,325.188110 610.115540,334.303162 
	C614.751770,345.858643 619.420654,357.401001 624.273682,369.440765 
	C626.457214,366.524811 627.019592,363.468872 628.072693,360.656769 
	C632.035828,350.073395 636.037537,339.501984 639.780090,328.840179 
	C640.764343,326.035950 642.042053,324.900421 645.077759,325.085541 
	C649.559143,325.358856 654.082581,325.366547 658.563904,325.092010 
	C662.420898,324.855713 663.525635,325.547211 661.849976,329.595978 
	C651.555054,354.472137 641.465515,379.433411 631.327942,404.374573 
	C629.450623,408.993317 627.650635,413.643829 625.843201,418.290619 
	C624.544617,421.628876 622.263428,423.215729 618.561401,423.086639 
	C613.455078,422.908569 608.337952,423.042023 602.447998,423.042023 
	C605.429810,415.970276 607.836670,409.436157 610.899170,403.225311 
	C614.129761,396.673523 613.672607,390.682373 610.641418,384.165314 
	C602.651550,366.986847 595.052856,349.626129 587.330872,332.323486 
	C584.150879,325.198181 584.188721,325.181305 592.005432,325.180939 
	C593.171631,325.180878 594.337769,325.180939 595.988403,325.180939 
z"/>
<path fill="#F9FAFB" opacity="1.000000" stroke="none" 
	d="
M921.509277,357.392212 
	C935.947388,366.846924 935.459229,385.068756 920.837830,393.328674 
	C909.224670,399.889160 897.280090,400.872986 884.985474,395.294220 
	C880.598572,393.303619 876.185791,391.369324 871.816040,389.342072 
	C869.184448,388.121246 868.340454,386.519592 870.585205,383.977081 
	C872.113403,382.246094 873.104004,380.046387 874.595276,378.275391 
	C877.083252,375.320465 880.222473,374.118195 883.939697,375.904266 
	C890.249023,378.935760 897.166565,378.847870 903.859680,379.908661 
	C904.670532,380.037170 905.557922,380.086090 906.343201,379.896210 
	C908.610046,379.348175 910.229431,377.602814 911.062805,375.741943 
	C912.006287,373.635437 909.439697,372.845978 908.255249,371.649841 
	C906.677917,370.056854 904.422241,369.730011 902.377625,369.072601 
	C894.314453,366.480011 886.114929,364.312836 878.242737,361.126678 
	C873.812378,359.333527 871.430420,356.173615 870.695129,351.450378 
	C868.485107,337.254242 873.600708,329.255829 887.482788,325.604187 
	C901.090149,322.024750 913.768616,323.926392 925.630005,331.727417 
	C928.707703,333.751617 928.524841,335.038544 926.489502,337.712799 
	C919.935608,346.324280 920.027222,346.468170 909.761169,342.808044 
	C906.265320,341.561676 902.758484,340.862366 899.042053,340.811829 
	C895.245789,340.760254 891.678345,342.632599 891.243286,345.682526 
	C890.843262,348.487213 894.644653,350.155029 897.683228,350.853180 
	C902.219360,351.895508 906.755066,352.953278 911.323364,353.836914 
	C914.785217,354.506500 918.050964,355.647003 921.509277,357.392212 
z"/>
<path fill="#F7F9FA" opacity="1.000000" stroke="none" 
	d="
M975.527710,380.679993 
	C978.574524,382.642059 982.910950,380.218018 984.528503,383.183868 
	C985.831116,385.572327 985.051819,389.034210 985.473938,391.980042 
	C986.041504,395.940704 984.338928,398.045654 980.547119,398.563293 
	C974.893311,399.335114 969.224609,399.506714 963.736084,397.638550 
	C957.161987,395.400909 953.325256,391.111145 952.718323,383.802917 
	C951.667419,371.148651 952.045776,358.487122 951.987061,345.829346 
	C951.971863,342.543793 951.724060,340.328491 947.634949,340.678436 
	C944.148254,340.976807 942.470398,339.441437 943.018799,335.670441 
	C943.351624,333.381775 943.174316,331.012360 943.150513,328.680023 
	C943.119751,325.664581 944.684204,323.739075 947.542053,323.696259 
	C951.275818,323.640259 952.023621,321.660034 951.949463,318.572540 
	C951.873413,315.407776 952.085693,312.229553 951.879150,309.076385 
	C951.690796,306.200165 952.334656,304.779694 955.644104,305.023926 
	C959.622253,305.317535 963.644653,305.226227 967.636353,305.046326 
	C970.189941,304.931213 971.235596,305.660919 971.099426,308.374023 
	C970.899170,312.363708 971.142700,316.373993 971.015686,320.369751 
	C970.946655,322.541168 971.745483,323.453247 973.890381,323.232117 
	C974.384949,323.181122 974.895874,323.177399 975.388489,323.238831 
	C978.619019,323.641663 983.458557,321.585022 984.777100,324.168091 
	C986.895020,328.317047 985.488037,333.609863 985.362000,338.412048 
	C985.301453,340.719360 983.161194,339.938904 981.848083,340.065002 
	C971.290955,341.078766 971.219849,341.055939 971.209412,351.773499 
	C971.202393,358.936157 971.379150,366.100281 971.568909,373.261200 
	C971.646118,376.176636 972.337097,378.903961 975.527710,380.679993 
z"/>
<path fill="#255976" opacity="1.000000" stroke="none" 
	d="
M315.540649,370.540619 
	C312.892365,368.018127 314.581421,366.393219 316.526703,365.827118 
	C330.666443,361.712341 344.550964,355.740753 359.855774,359.063904 
	C367.895966,360.809692 370.640015,365.766022 366.983276,371.835480 
	C366.260925,373.034424 365.404968,373.839783 363.998016,374.238617 
	C347.513794,378.911530 331.446686,377.981232 315.540649,370.540619 
z"/>
<path fill="#245575" opacity="1.000000" stroke="none" 
	d="
M226.220032,335.294678 
	C214.486267,338.431427 203.081772,340.602661 191.320847,338.026703 
	C188.223755,337.348358 185.113174,336.615387 182.506027,334.707458 
	C177.546722,331.078156 177.959564,324.968628 183.850784,323.731873 
	C201.888977,319.945129 219.578476,320.693237 235.772461,331.002106 
	C236.007767,331.151917 236.085693,331.548950 236.580994,332.470520 
	C233.168549,333.398376 229.892029,334.289276 226.220032,335.294678 
z"/>
<path fill="#255776" opacity="1.000000" stroke="none" 
	d="
M240.210373,378.761597 
	C244.923096,381.423828 245.095871,384.259705 240.943481,386.821747 
	C237.066696,389.213806 232.749100,389.380798 228.420227,388.686127 
	C223.170258,387.843750 218.100937,386.296509 213.197830,384.207428 
	C210.862595,383.212524 208.137421,382.251282 208.653961,379.182709 
	C209.206314,375.901398 211.758987,374.045227 215.078766,373.987885 
	C221.409927,373.878448 227.590500,375.189514 233.728882,376.579865 
	C235.816086,377.052582 237.814346,377.917999 240.210373,378.761597 
z"/>
<path fill="#275577" opacity="1.000000" stroke="none" 
	d="
M805.437500,343.140991 
	C822.405029,336.153870 836.244690,345.492767 835.121399,362.773895 
	C834.454712,373.030579 827.623047,379.838013 817.202515,380.629272 
	C807.227417,381.386749 798.907166,375.231079 796.750244,365.497711 
	C794.710510,356.293182 797.654907,348.450287 805.437500,343.140991 
z"/>
</svg>